<svg xmlns="http://www.w3.org/2000/svg" viewBox="0 0 32 32" width="32" height="32">
  <!-- Rocket body -->
  <path d="M16 2 C16 2 8 10 8 18 C8 22 11 26 16 26 C21 26 24 22 24 18 C24 10 16 2 16 2 Z" fill="#ffffff"/>
  <!-- Rocket window -->
  <circle cx="16" cy="14" r="3" fill="#ffffff"/>
  <!-- Left fin -->
  <path d="M8 20 L4 26 L8 24 Z" fill="#ffffff"/>
  <!-- Right fin -->
  <path d="M24 20 L28 26 L24 24 Z" fill="#ffffff"/>
  <!-- Flame -->
  <path d="M12 26 Q14 30 16 32 Q18 30 20 26 Q18 28 16 27 Q14 28 12 26 Z" fill="#ffffff"/>
</svg>
