<svg xmlns="http://www.w3.org/2000/svg" viewBox="0 0 32 32" width="32" height="32">
  <defs>
    <linearGradient id="rocketGradient" x1="0%" y1="0%" x2="100%" y2="100%">
      <stop offset="0%" style="stop-color:#FF6B6B;stop-opacity:1" />
      <stop offset="100%" style="stop-color:#FF8E53;stop-opacity:1" />
    </linearGradient>
    <linearGradient id="flameGradient" x1="0%" y1="0%" x2="0%" y2="100%">
      <stop offset="0%" style="stop-color:#FFE066;stop-opacity:1" />
      <stop offset="100%" style="stop-color:#FF6B6B;stop-opacity:1" />
    </linearGradient>
  </defs>
  <!-- Rocket body -->
  <path d="M16 2 C16 2 8 10 8 18 C8 22 11 26 16 26 C21 26 24 22 24 18 C24 10 16 2 16 2 Z" fill="url(#rocketGradient)"/>
  <!-- Rocket window -->
  <circle cx="16" cy="14" r="3" fill="#1a1a2e" stroke="#fff" stroke-width="0.5"/>
  <!-- Left fin -->
  <path d="M8 20 L4 26 L8 24 Z" fill="url(#rocketGradient)"/>
  <!-- Right fin -->
  <path d="M24 20 L28 26 L24 24 Z" fill="url(#rocketGradient)"/>
  <!-- Flame -->
  <path d="M12 26 Q14 30 16 32 Q18 30 20 26 Q18 28 16 27 Q14 28 12 26 Z" fill="url(#flameGradient)"/>
</svg>
